<?xml version="1.0" standalone="no"?>
<!DOCTYPE svg PUBLIC "-//W3C//DTD SVG 20010904//EN"
 "http://www.w3.org/TR/2001/REC-SVG-20010904/DTD/svg10.dtd">
<svg version="1.0" xmlns="http://www.w3.org/2000/svg"
 width="700.000000pt" height="700.000000pt" viewBox="0 0 700.000000 700.000000"
 preserveAspectRatio="xMidYMid meet">
<metadata>
Created by potrace 1.14, written by Peter Selinger 2001-2017
</metadata>
<g transform="translate(0.000000,700.000000) scale(0.100000,-0.100000)"
fill="#000000" stroke="none">
<path d="M1329 5547 c-102 -29 -166 -84 -211 -183 l-23 -49 0 -1465 0 -1465
26 -55 c37 -80 72 -115 147 -152 l67 -33 795 -5 c858 -6 818 -4 935 -63 84
-42 201 -162 243 -249 36 -73 62 -177 62 -248 0 -56 27 -101 73 -123 44 -21
70 -21 114 0 51 24 69 61 77 155 16 193 116 354 281 453 122 73 72 69 955 75
631 5 803 9 832 19 70 26 131 82 168 155 l35 69 0 1467 0 1467 -35 69 c-40 78
-104 134 -179 156 -37 10 -204 13 -826 13 l-780 0 -83 -23 c-108 -29 -199 -71
-275 -126 -69 -48 -164 -141 -199 -192 -13 -19 -25 -34 -28 -34 -3 0 -16 16
-28 34 -37 55 -140 154 -205 198 -75 51 -169 94 -266 121 -74 21 -95 21 -851
24 -599 2 -785 -1 -821 -10z m1614 -273 c101 -26 175 -70 257 -153 52 -52 86
-97 108 -143 64 -131 62 -75 62 -1495 0 -735 -4 -1293 -9 -1293 -5 0 -15 7
-22 16 -45 55 -211 141 -338 177 -74 21 -99 21 -856 27 l-780 5 -3 1425 c-1
784 0 1431 3 1438 3 9 165 12 761 12 655 0 764 -2 817 -16z m2692 -1424 l0
-1435 -780 -5 c-768 -6 -781 -6 -858 -28 -42 -12 -102 -33 -132 -46 -62 -28
-183 -105 -204 -129 -7 -9 -17 -17 -22 -17 -5 0 -9 558 -9 1293 0 1420 -2
1364 62 1495 39 82 157 203 238 247 124 66 95 64 940 62 l765 -2 0 -1435z"/>
</g>
</svg>
